<?xml version="1.0" encoding="UTF-8" standalone="no"?>
<!DOCTYPE svg PUBLIC "-//W3C//DTD SVG 1.1//EN" "http://www.w3.org/Graphics/SVG/1.1/DTD/svg11.dtd">
<svg width="100%" height="100%" viewBox="0 0 300 300" version="1.1" xmlns="http://www.w3.org/2000/svg" xmlns:xlink="http://www.w3.org/1999/xlink" xml:space="preserve" xmlns:serif="http://www.serif.com/" style="fill-rule:evenodd;clip-rule:evenodd;stroke-linejoin:round;stroke-miterlimit:2;">
    <g transform="matrix(1,0,0,1,-50.0195,-49.9567)">
        <g id="logo">
            <g transform="matrix(-0.242539,0.970142,0.970142,0.242539,195.835,125.761)">
                <path d="M-13.124,-60.476L59.776,-60.476L42.93,6.906L-21.393,-27.4L-13.124,-60.476Z" style="fill:rgb(29,29,27);fill-rule:nonzero;"/>
            </g>
            <g transform="matrix(1,0,0,1,350.019,349.957)">
                <path d="M0,-300L-137.908,-300L-84.435,-86.074L-134.223,-86.074L-145.506,-131.217L-239.775,-131.217L-251.06,-86.074L-300,-86.074L-300,0L-249.509,0L-186.966,-51.846L-145.066,-51.846L-134.173,0L0,0L0,-300Z" style="fill:rgb(29,29,27);fill-rule:nonzero;"/>
            </g>
        </g>
    </g>
</svg>
